<svg id="Layer_1" data-name="Layer 1" xmlns="http://www.w3.org/2000/svg" viewBox="0 0 33.97 33.91"><path d="M655.29,19.22A17,17,0,1,1,638.22,2.44,17,17,0,0,1,655.29,19.22Z" transform="translate(-621.32 -2.44)" fill="#7ec87e"/><path d="M638.2,4.69a14.7,14.7,0,1,1-14.62,14.75A14.77,14.77,0,0,1,638.2,4.69Z" transform="translate(-621.32 -2.44)" fill="#1e2a2d"/><path d="M648.22,19.83a11,11,0,0,1-.13,2A2.57,2.57,0,0,1,645.53,24,2.52,2.52,0,0,1,642.88,22a11.48,11.48,0,0,1,0-4.56,2.52,2.52,0,0,1,2.59-2.07,2.57,2.57,0,0,1,2.58,2.1A10.43,10.43,0,0,1,648.22,19.83Z" transform="translate(-621.32 -2.44)" fill="#7dc87d"/><path d="M641,19.75a15.94,15.94,0,0,1,0,1.83A2.57,2.57,0,0,1,638.43,24a2.49,2.49,0,0,1-2.7-2.17,11.62,11.62,0,0,1,0-4.28,2.51,2.51,0,0,1,2.77-2.26A2.64,2.64,0,0,1,641,17.91c0,.61,0,1.23,0,1.84Z" transform="translate(-621.32 -2.44)" fill="#7dc87d"/><path d="M628.87,17.62c-.2-.66,0-1,.6-1.21s1.41-.53,2.11-.81c.33-.13.5-.14.5.32q0,3.75,0,7.49c0,.41-.13.52-.53.52s-.58-.1-.58-.55c0-1.91,0-3.82,0-5.73,0-.81,0-.81-.8-.52Z" transform="translate(-621.32 -2.44)" fill="#7dc77d"/><path d="M643.8,20.47a15.68,15.68,0,0,1,.15-3.06,1.42,1.42,0,0,1,1.61-1.16A1.49,1.49,0,0,1,647,17.59a.47.47,0,0,1-.19.55C645.88,18.87,644.92,19.61,643.8,20.47Z" transform="translate(-621.32 -2.44)" fill="#1e2a2d"/><path d="M647.06,19c0,1,.07,1.86,0,2.7a1.51,1.51,0,0,1-1.54,1.44,1.54,1.54,0,0,1-1.59-1.32c0-.19-.1-.35.1-.5Z" transform="translate(-621.32 -2.44)" fill="#1e2a2d"/><path d="M636.67,20.44a11.36,11.36,0,0,1,.1-3,1.4,1.4,0,0,1,1.32-1.19,1.48,1.48,0,0,1,1.66.91.82.82,0,0,1-.31,1.19C638.52,19,637.65,19.69,636.67,20.44Z" transform="translate(-621.32 -2.44)" fill="#1e2a2d"/><path d="M640,19a12.82,12.82,0,0,1-.14,3,1.58,1.58,0,0,1-3.06-.08.52.52,0,0,1,.16-.63Z" transform="translate(-621.32 -2.44)" fill="#1e2a2d"/></svg>