<svg id="Layer_1" data-name="Layer 1" xmlns="http://www.w3.org/2000/svg" viewBox="0 0 33.97 33.87"><path d="M633.84,3.06a13.64,13.64,0,0,1,4.71-.58.9.9,0,0,1-.09.51c-.32.88-.13,1.26.79,1.4s2.09.3,3.12.56a15,15,0,1,1-9.21.34,6.07,6.07,0,0,0,.59-.24c1-.5,1-.81.31-1.64A1.08,1.08,0,0,1,633.84,3.06Z" transform="translate(-621.32 -2.46)" fill="#273229"/><path d="M633.84,3.06c.68,0,1.18.35,1.24,1.06s-.49,1-1.08,1.24a14.89,14.89,0,0,0-6.82,4.48,14.51,14.51,0,0,0,2.47,21.36,14.33,14.33,0,0,0,16.61.49A14.16,14.16,0,0,0,653,19.86a14.73,14.73,0,0,0-9.26-14.12,14.32,14.32,0,0,0-4.44-.94c-.68,0-1.27-.22-1.48-1s.28-1,.74-1.36A17.12,17.12,0,0,1,655.11,17a17.06,17.06,0,0,1-17.28,19.37,17.34,17.34,0,0,1-16.34-14.41A17.06,17.06,0,0,1,633.84,3.06Z" transform="translate(-621.32 -2.46)" fill="#61ca75"/><path d="M636.31,19.39c-1.44,1-2.63,1.1-3.63.22a3.6,3.6,0,0,1-.49-4.11,2.5,2.5,0,0,1,2.42-1.22,2.29,2.29,0,0,1,2.3,1.37,7.5,7.5,0,0,1,0,6,3.19,3.19,0,0,1-4.07,1.46.68.68,0,0,1-.41-.86c.1-.51.44-.17.65-.11C635.17,22.73,636.38,21.69,636.31,19.39Z" transform="translate(-621.32 -2.46)" fill="#60c974"/><path d="M640.28,18.25c1.33-1,2.72-1.06,3.66-.23a3.74,3.74,0,0,1,.44,4.14,2.76,2.76,0,0,1-3.36,1,2.39,2.39,0,0,1-1.53-1.64,8.19,8.19,0,0,1,0-5.29,3.13,3.13,0,0,1,4.07-1.85c.44.16.68.4.56.85s-.49.18-.75.13C641.34,15,640.25,16,640.28,18.25Z" transform="translate(-621.32 -2.46)" fill="#60c974"/><path d="M633,17.22c0-1.26.56-2,1.5-2s1.71.86,1.68,2.13-.66,1.95-1.62,1.95S633,18.57,633,17.22Z" transform="translate(-621.32 -2.46)" fill="#273329"/><path d="M643.61,20.38c0,1.31-.58,2-1.61,2s-1.6-.81-1.58-2.08.62-1.94,1.6-2S643.62,19.07,643.61,20.38Z" transform="translate(-621.32 -2.46)" fill="#273329"/></svg>