<svg id="Layer_1" data-name="Layer 1" xmlns="http://www.w3.org/2000/svg" viewBox="0 0 48 48"><rect width="48" height="48" fill="none"/><path d="M33.37,19.72c-2.28-9.94-7-12.54-8.15-14.34a20,20,0,0,1-1.46-2.6,2.7,2.7,0,0,1-.82,2.11c-1.63,1.31-8,6.52-8.64,17.77-.48,10.59,7.83,16.94,9,17.59a2.54,2.54,0,0,0,2.44-.32,20.49,20.49,0,0,0,7.66-20.21" fill="#10aa50"/><path d="M25.34,39.93h0c-1.14-.65-1.46-3.1-1.46-5.22.32-3.74.32-7.49.32-11.4-.16-2,0-18.09-.49-20.53a10.34,10.34,0,0,0,1.14,2.28C26,7,30.72,9.62,33,19.56,34.79,29.83,29.42,37.16,25.34,39.93Z" fill="#12924f"/><path d="M23.92,34.63a28.91,28.91,0,0,1-1,5.54s.33,2.45.65,5h.82l1-5.37C24.24,39.2,23.92,36.91,23.92,34.63Z" fill="#b8c4c2"/></svg>