<svg id="Layer_1" data-name="Layer 1" xmlns="http://www.w3.org/2000/svg" xmlns:xlink="http://www.w3.org/1999/xlink" viewBox="0 0 48 48"><defs><linearGradient id="linear-gradient" x1="19.94" y1="20.55" x2="16.16" y2="28.28" gradientUnits="userSpaceOnUse"><stop offset="0" stop-color="#3f873f"/><stop offset="0.33" stop-color="#3f8b3d"/><stop offset="0.64" stop-color="#3e9637"/><stop offset="0.93" stop-color="#3da92e"/><stop offset="1" stop-color="#3dae2b"/></linearGradient><clipPath id="clip-path" transform="translate(0 0)"><path d="M18.49,18.75a.5.5,0,0,0-.5,0L13.8,21.17a.51.51,0,0,0-.26.44v4.84a.51.51,0,0,0,.26.44L18,29.31a.5.5,0,0,0,.5,0l4.19-2.42a.51.51,0,0,0,.26-.44V21.61a.51.51,0,0,0-.26-.44Z" fill="url(#linear-gradient)" clip-rule="evenodd"/></clipPath><linearGradient id="linear-gradient-3" x1="17.6" y1="24.59" x2="28.22" y2="16.75" gradientUnits="userSpaceOnUse"><stop offset="0.14" stop-color="#3f873f"/><stop offset="0.4" stop-color="#529f44"/><stop offset="0.71" stop-color="#63b649"/><stop offset="0.91" stop-color="#6abf4b"/></linearGradient><linearGradient id="linear-gradient-4" x1="13.39" y1="17.88" x2="23.08" y2="17.88" gradientUnits="userSpaceOnUse"><stop offset="0.09" stop-color="#6abf4b"/><stop offset="0.29" stop-color="#63b649"/><stop offset="0.6" stop-color="#529f44"/><stop offset="0.86" stop-color="#3f873f"/></linearGradient><linearGradient id="linear-gradient-5" x1="13.39" y1="24.03" x2="23.08" y2="24.03" xlink:href="#linear-gradient-4"/><linearGradient id="linear-gradient-6" x1="13.39" y1="26.79" x2="23.08" y2="26.79" xlink:href="#linear-gradient-4"/><linearGradient id="linear-gradient-7" x1="13.39" y1="28.04" x2="23.08" y2="28.04" xlink:href="#linear-gradient-4"/><linearGradient id="linear-gradient-8" x1="24.5" y1="20.32" x2="18.52" y2="32.51" xlink:href="#linear-gradient"/></defs><rect width="48" height="48" fill="none"/><path d="M11.44,21.53a.5.5,0,0,0-.25-.44L7,18.67a.44.44,0,0,0-.24-.07h0a.39.39,0,0,0-.23.07L2.25,21.09a.52.52,0,0,0-.25.44v6.53a.25.25,0,0,0,.13.22.23.23,0,0,0,.25,0l2.5-1.43a.52.52,0,0,0,.26-.44V23.36a.49.49,0,0,1,.25-.44l1.07-.62a.55.55,0,0,1,.25-.07A.59.59,0,0,1,7,22.3L8,22.92a.5.5,0,0,1,.26.44v3.05a.51.51,0,0,0,.25.44l2.5,1.43a.24.24,0,0,0,.26,0,.24.24,0,0,0,.12-.22Z" transform="translate(0 0)" fill="#fff" fill-rule="evenodd"/><path d="M31.71,12.56a.25.25,0,0,0-.25,0,.26.26,0,0,0-.13.22v6.47a.18.18,0,0,1-.08.15.19.19,0,0,1-.18,0L30,18.79a.52.52,0,0,0-.51,0l-4.21,2.43a.52.52,0,0,0-.25.45v4.86a.5.5,0,0,0,.25.44l4.21,2.44a.52.52,0,0,0,.51,0L34.23,27a.5.5,0,0,0,.25-.44V14.4a.51.51,0,0,0-.26-.44Zm-.39,12.37a.11.11,0,0,1-.06.11l-1.45.84a.15.15,0,0,1-.13,0L28.24,25a.12.12,0,0,1-.07-.11V23.26a.14.14,0,0,1,.07-.11l1.44-.83a.11.11,0,0,1,.13,0l1.45.83a.13.13,0,0,1,.06.11Z" transform="translate(0 0)" fill="#fff" fill-rule="evenodd"/><path d="M45.75,23.22a.52.52,0,0,0,.25-.44V21.6a.52.52,0,0,0-.25-.44l-4.19-2.43a.52.52,0,0,0-.51,0l-4.21,2.43a.51.51,0,0,0-.26.44v4.86a.51.51,0,0,0,.26.45L41,29.29a.48.48,0,0,0,.49,0l2.54-1.4a.26.26,0,0,0,.13-.22.26.26,0,0,0-.13-.23L39.82,25a.26.26,0,0,1-.13-.22V23.26a.26.26,0,0,1,.13-.22l1.32-.76a.28.28,0,0,1,.25,0l1.32.76a.26.26,0,0,1,.13.22v1.2a.24.24,0,0,0,.13.22.23.23,0,0,0,.25,0Z" transform="translate(0 0)" fill="#fff" fill-rule="evenodd"/><path d="M41.24,23a.09.09,0,0,1,.1,0l.81.47a.09.09,0,0,1,.05.08v.93a.11.11,0,0,1-.05.09l-.81.47h-.1l-.81-.47a.1.1,0,0,1,0-.09v-.93s0-.07,0-.08Z" transform="translate(0 0)" fill="#679e63" fill-rule="evenodd"/><path d="M18.49,18.75a.5.5,0,0,0-.5,0L13.8,21.17a.51.51,0,0,0-.26.44v4.84a.51.51,0,0,0,.26.44L18,29.31a.5.5,0,0,0,.5,0l4.19-2.42a.51.51,0,0,0,.26-.44V21.61a.51.51,0,0,0-.26-.44Z" transform="translate(0 0)" fill-rule="evenodd" fill="url(#linear-gradient)"/><g clip-path="url(#clip-path)"><path d="M18,18.75l-4.2,2.42a.52.52,0,0,0-.27.44v4.84a.48.48,0,0,0,.13.32l4.72-8.07A.55.55,0,0,0,18,18.75Z" transform="translate(0 0)" fill="none"/><path d="M18.38,29.36l.12-.05,4.19-2.42a.52.52,0,0,0,.27-.44V21.61a.48.48,0,0,0-.16-.35Z" transform="translate(0 0)" fill="none"/><path d="M22.69,21.17l-4.2-2.42-.13-.05-4.72,8.07a.53.53,0,0,0,.14.12L18,29.31a.53.53,0,0,0,.39.05l4.42-8.1A.31.31,0,0,0,22.69,21.17Z" transform="translate(0 0)" fill="url(#linear-gradient-3)"/><path d="M23,26.45V21.61a.52.52,0,0,0-.27-.44l-4.2-2.42a.43.43,0,0,0-.16-.05l4.61,7.87A.5.5,0,0,0,23,26.45Z" transform="translate(0 0)" fill="none"/><path d="M13.78,21.17a.52.52,0,0,0-.27.44v4.84a.52.52,0,0,0,.27.44L18,29.31a.51.51,0,0,0,.32.06L13.8,21.16Z" transform="translate(0 0)" fill="none"/><polygon points="17.85 17.86 17.79 17.9 17.87 17.9 17.85 17.86" fill="url(#linear-gradient-4)"/><path d="M22.69,26.89a.5.5,0,0,0,.25-.32L18.33,18.7a.48.48,0,0,0-.35.05L13.8,21.16l4.51,8.21a.6.6,0,0,0,.19-.06Z" transform="translate(0 0)" fill="url(#linear-gradient-5)"/><polygon points="23.08 26.81 23.06 26.76 23.06 26.83 23.08 26.81" fill="url(#linear-gradient-6)"/><path d="M22.69,26.89,18.5,29.31a.6.6,0,0,1-.19.06l.09.15,4.66-2.69v-.07l-.12-.19A.5.5,0,0,1,22.69,26.89Z" transform="translate(0 0)" fill="url(#linear-gradient-7)"/><path d="M22.69,26.89,18.5,29.31a.6.6,0,0,1-.19.06l.09.15,4.66-2.69v-.07l-.12-.19A.5.5,0,0,1,22.69,26.89Z" transform="translate(0 0)" fill="url(#linear-gradient-8)"/></g></svg>