<svg id="Layer_1" data-name="Layer 1" xmlns="http://www.w3.org/2000/svg" xmlns:xlink="http://www.w3.org/1999/xlink" viewBox="0 0 41.54 42"><defs><linearGradient id="linear-gradient" x1="19.86" y1="34.03" x2="60.6" y2="-1.02" gradientTransform="matrix(0.56, 0, 0, -0.57, -8.96, 23.53)" gradientUnits="userSpaceOnUse"><stop offset="0" stop-color="#5a9fd4"/><stop offset="1" stop-color="#306998"/></linearGradient><linearGradient id="linear-gradient-2" x1="76.35" y1="-22.23" x2="61.8" y2="-1.65" gradientTransform="matrix(0.56, 0, 0, -0.57, -8.96, 23.53)" gradientUnits="userSpaceOnUse"><stop offset="0" stop-color="#ffd43b"/><stop offset="1" stop-color="#ffe873"/></linearGradient></defs><g id="g2303"><path id="path1948" d="M23.75,3A28.32,28.32,0,0,0,19,3.41c-4.24.75-5,2.32-5,5.21v3.82H24v1.27H10.19a6.26,6.26,0,0,0-6.26,5.08A18.72,18.72,0,0,0,3.93,29c.72,3,2.42,5.08,5.33,5.08h3.45V29.47A6.37,6.37,0,0,1,19,23.25H29a5,5,0,0,0,5-5.09V8.62c0-2.72-2.29-4.76-5-5.21A30.61,30.61,0,0,0,23.75,3ZM18.33,6.07A1.91,1.91,0,1,1,16.45,8,1.9,1.9,0,0,1,18.33,6.07Z" transform="translate(-3.23 -3)" fill="url(#linear-gradient)"/><path id="path1950" d="M35.23,13.71v4.45A6.42,6.42,0,0,1,29,24.51H19a5.11,5.11,0,0,0-5,5.09v9.54c0,2.72,2.37,4.32,5,5.1a16.8,16.8,0,0,0,10,0c2.53-.73,5-2.2,5-5.1V35.33H24V34.05H39c2.91,0,4-2,5-5.08s1-6.15,0-10.18c-.72-2.9-2.09-5.08-5-5.08ZM29.6,37.87a1.91,1.91,0,1,1-1.88,1.9A1.89,1.89,0,0,1,29.6,37.87Z" transform="translate(-3.23 -3)" fill="url(#linear-gradient-2)"/></g></svg>