<svg id="Layer_1" data-name="Layer 1" xmlns="http://www.w3.org/2000/svg" viewBox="0 0 42.52 48">
  <circle id="circle" cx="8.4" cy="24.48" r="8.4" fill="#2e84c3"/>
  <path id="gear" d="M9.56,39.9c2.76-.81,4.41-.13,5.52,2.13.94,1.95,2.49,1.4,4,.7s2.21-1.31,1.75-3.17c-1.11-4.48,1.34-6.06,5.36-5.67,1.87.17,2.82-.23,3.59-2s.51-2.74-1.06-3.89c-3.43-2.52-3.6-5.34.07-7.79,1.69-1.12,1.85-2.14,1.06-3.88s-1.45-2.48-3.5-2.08c-4.25.82-6.2-1.24-5.46-5.42.36-2-.28-2.78-1.95-3.56s-3-.85-3.88,1C14,8.62,12.26,9,10,8.34,17.53-2.12,24.85-2.72,33.17,6.42c3,3.34,6.17,6.62,9.11,10,5,5.82,4.64,11.66-1,17-3.27,3.13-6.63,6.15-10,9.19C22.73,50.47,17,49.85,9.56,39.9Z" transform="translate(-3.26)" fill="#fff"/>
</svg>