<svg id="Layer_1" data-name="Layer 1" xmlns="http://www.w3.org/2000/svg" viewBox="0 0 48 48"><path d="M44.7,8.13c-.28.42-.53.86-.78,1.32L30.75,32.23l-6.6,11.43-.13.23c-.08,0-.1-.1-.12-.15l-12-20.82L3.38,8.24,3.3,8.13h8.29l1,1.72q1.38,2.43,2.78,4.83Q16.65,16.9,18,19.09l2.8,4.85,2.84,4.92.43.74,1.37-2.35,2-3.52,1.9-3.28,1.92-3.32,2.12-3.67,2-3.53c.35-.6.69-1.21,1.05-1.82H44.7Z" fill="#41b783"/><path d="M11.59,8.11H19a.31.31,0,0,1,.29.17l4.59,8,.07.13a.51.51,0,0,0,.15-.21l4.55-7.87A.28.28,0,0,1,29,8.11h7.45l-1,1.82-2,3.53L31.2,17.13l-1.91,3.32-1.9,3.28-2,3.52L24,29.6l-.43-.74-2.85-4.92L18,19.1q-1.28-2.21-2.59-4.41Q14,12.29,12.59,9.86Z" fill="#34495e"/><rect width="48" height="48" fill="none"/></svg>